<svg width="1600" height="900" viewBox="0 0 1600 900" fill="none" xmlns="http://www.w3.org/2000/svg">
<g filter="url(#filter0_f_1_1525)">
<path fill-rule="evenodd" clip-rule="evenodd" d="M311.012 1180.26C423.246 1094.45 542.112 962.402 501.485 816.404C461.625 673.159 247.873 677.021 140.861 568.799C36.3175 463.073 45.4534 241.569 -95.6078 212.555C-234.059 184.077 -322 343.93 -388.324 459.953C-438.314 547.405 -422.18 654.655 -408.479 759.879C-396.664 850.615 -371.182 935.577 -316.35 1012.7C-247.021 1110.2 -174.787 1217.08 -61.9781 1247.21C70.0979 1282.49 209.422 1257.94 311.012 1180.26Z" fill="url(#paint0_linear_1_1525)"/>
</g>
<g opacity="0.6" filter="url(#filter1_f_1_1525)">
<path fill-rule="evenodd" clip-rule="evenodd" d="M1139.74 -249.873C1019.53 -175.654 888.111 -56.0877 914.01 93.2288C939.419 239.729 1152.5 257.154 1248.21 375.487C1341.71 491.091 1310.58 710.586 1448.06 753.492C1582.99 795.604 1686.4 645.295 1763.94 536.446C1822.38 454.403 1817 346.079 1813.83 240.014C1811.11 148.553 1794.2 61.4774 1747.32 -20.7147C1688.03 -124.636 1626.79 -238.174 1517.54 -279.38C1389.63 -327.624 1248.56 -317.052 1139.74 -249.873Z" fill="url(#paint1_linear_1_1525)"/>
</g>
<mask id="mask0_1_1525" style="mask-type:alpha" maskUnits="userSpaceOnUse" x="0" y="0" width="800" height="900">
<rect width="800" height="900" fill="url(#paint2_radial_1_1525)"/>
<rect width="800" height="900" fill="url(#paint3_radial_1_1525)"/>
</mask>
<g mask="url(#mask0_1_1525)">
<line x1="41.5" y1="-67" x2="41.5" y2="1029" stroke="black"/>
<line x1="96.5" y1="-67" x2="96.5" y2="1029" stroke="black"/>
<line x1="151.5" y1="-67" x2="151.5" y2="1029" stroke="black"/>
<line x1="206.5" y1="-67" x2="206.5" y2="1029" stroke="black"/>
<line x1="261.5" y1="-67" x2="261.5" y2="1029" stroke="black"/>
<line x1="316.5" y1="-67" x2="316.5" y2="1029" stroke="black"/>
<line x1="371.5" y1="-67" x2="371.5" y2="1029" stroke="black"/>
<line x1="426.5" y1="-67" x2="426.5" y2="1029" stroke="black"/>
<line x1="481.5" y1="-67" x2="481.5" y2="1029" stroke="black"/>
<line x1="536.5" y1="-67" x2="536.5" y2="1029" stroke="black"/>
<line x1="591.5" y1="-67" x2="591.5" y2="1029" stroke="black"/>
<line x1="646.5" y1="-67" x2="646.5" y2="1029" stroke="black"/>
<line x1="701.5" y1="-67" x2="701.5" y2="1029" stroke="black"/>
<line x1="756.5" y1="-67" x2="756.5" y2="1029" stroke="black"/>
<line x1="1029" y1="41.5" x2="-67" y2="41.5" stroke="black"/>
<line x1="1029" y1="96.5" x2="-67" y2="96.5" stroke="black"/>
<line x1="1029" y1="151.5" x2="-67" y2="151.5" stroke="black"/>
<line x1="1029" y1="206.5" x2="-67" y2="206.5" stroke="black"/>
<line x1="1029" y1="261.5" x2="-67" y2="261.5" stroke="black"/>
<line x1="1029" y1="316.5" x2="-67" y2="316.5" stroke="black"/>
<line x1="1029" y1="371.5" x2="-67" y2="371.5" stroke="black"/>
<line x1="1029" y1="426.5" x2="-67" y2="426.5" stroke="black"/>
<line x1="1029" y1="481.5" x2="-67" y2="481.5" stroke="black"/>
<line x1="1029" y1="536.5" x2="-67" y2="536.5" stroke="black"/>
<line x1="1029" y1="591.5" x2="-67" y2="591.5" stroke="black"/>
<line x1="1029" y1="646.5" x2="-67" y2="646.5" stroke="black"/>
<line x1="1029" y1="701.5" x2="-67" y2="701.5" stroke="black"/>
<line x1="1029" y1="756.5" x2="-67" y2="756.5" stroke="black"/>
<line x1="1029" y1="811.5" x2="-67" y2="811.5" stroke="black"/>
<line x1="1029" y1="866.5" x2="-67" y2="866.5" stroke="black"/>
</g>
<mask id="mask1_1_1525" style="mask-type:alpha" maskUnits="userSpaceOnUse" x="800" y="0" width="800" height="900">
<rect x="800" width="800" height="900" fill="url(#paint4_radial_1_1525)"/>
<rect x="800" width="800" height="900" fill="url(#paint5_radial_1_1525)"/>
</mask>
<g mask="url(#mask1_1_1525)">
<line x1="841.5" y1="-67" x2="841.5" y2="1029" stroke="black"/>
<line x1="896.5" y1="-67" x2="896.5" y2="1029" stroke="black"/>
<line x1="951.5" y1="-67" x2="951.5" y2="1029" stroke="black"/>
<line x1="1006.5" y1="-67" x2="1006.5" y2="1029" stroke="black"/>
<line x1="1061.5" y1="-67" x2="1061.5" y2="1029" stroke="black"/>
<line x1="1116.5" y1="-67" x2="1116.5" y2="1029" stroke="black"/>
<line x1="1171.5" y1="-67" x2="1171.5" y2="1029" stroke="black"/>
<line x1="1226.5" y1="-67" x2="1226.5" y2="1029" stroke="black"/>
<line x1="1281.5" y1="-67" x2="1281.5" y2="1029" stroke="black"/>
<line x1="1336.5" y1="-67" x2="1336.5" y2="1029" stroke="black"/>
<line x1="1391.5" y1="-67" x2="1391.5" y2="1029" stroke="black"/>
<line x1="1446.5" y1="-67" x2="1446.5" y2="1029" stroke="black"/>
<line x1="1501.5" y1="-67" x2="1501.5" y2="1029" stroke="black"/>
<line x1="1556.5" y1="-67" x2="1556.5" y2="1029" stroke="black"/>
<line x1="1829" y1="41.5" x2="733" y2="41.5" stroke="black"/>
<line x1="1829" y1="96.5" x2="733" y2="96.5" stroke="black"/>
<line x1="1829" y1="151.5" x2="733" y2="151.5" stroke="black"/>
<line x1="1829" y1="206.5" x2="733" y2="206.5" stroke="black"/>
<line x1="1829" y1="261.5" x2="733" y2="261.5" stroke="black"/>
<line x1="1829" y1="316.5" x2="733" y2="316.5" stroke="black"/>
<line x1="1829" y1="371.5" x2="733" y2="371.5" stroke="black"/>
<line x1="1829" y1="426.5" x2="733" y2="426.5" stroke="black"/>
<line x1="1829" y1="481.5" x2="733" y2="481.5" stroke="black"/>
<line x1="1829" y1="536.5" x2="733" y2="536.5" stroke="black"/>
<line x1="1829" y1="591.5" x2="733" y2="591.5" stroke="black"/>
<line x1="1829" y1="646.5" x2="733" y2="646.5" stroke="black"/>
<line x1="1829" y1="701.5" x2="733" y2="701.5" stroke="black"/>
<line x1="1829" y1="756.5" x2="733" y2="756.5" stroke="black"/>
<line x1="1829" y1="811.5" x2="733" y2="811.5" stroke="black"/>
<line x1="1829" y1="866.5" x2="733" y2="866.5" stroke="black"/>
</g>
<defs>
<filter id="filter0_f_1_1525" x="-722.31" y="-90.7827" width="1531.94" height="1653.77" filterUnits="userSpaceOnUse" color-interpolation-filters="sRGB">
<feFlood flood-opacity="0" result="BackgroundImageFix"/>
<feBlend mode="normal" in="SourceGraphic" in2="BackgroundImageFix" result="shape"/>
<feGaussianBlur stdDeviation="150" result="effect1_foregroundBlur_1_1525"/>
</filter>
<filter id="filter1_f_1_1525" x="610.711" y="-609.213" width="1504.88" height="1669.96" filterUnits="userSpaceOnUse" color-interpolation-filters="sRGB">
<feFlood flood-opacity="0" result="BackgroundImageFix"/>
<feBlend mode="normal" in="SourceGraphic" in2="BackgroundImageFix" result="shape"/>
<feGaussianBlur stdDeviation="150" result="effect1_foregroundBlur_1_1525"/>
</filter>
<linearGradient id="paint0_linear_1_1525" x1="115.409" y1="1066.12" x2="100.313" y2="253.513" gradientUnits="userSpaceOnUse">
<stop offset="0.206022" stop-color="#D2DDF7"/>
<stop offset="1" stop-color="#D6C9F2"/>
</linearGradient>
<linearGradient id="paint1_linear_1_1525" x1="1323.02" y1="-116.836" x2="1257.18" y2="693.243" gradientUnits="userSpaceOnUse">
<stop offset="0.206022" stop-color="#D2DDF7"/>
<stop offset="1" stop-color="#D6C9F2"/>
</linearGradient>
<radialGradient id="paint2_radial_1_1525" cx="0" cy="0" r="1" gradientUnits="userSpaceOnUse" gradientTransform="translate(662.5 143) rotate(122.48) scale(256.051 227.601)">
<stop stop-color="#D9D9D9" stop-opacity="0.05"/>
<stop offset="1" stop-color="#D9D9D9" stop-opacity="0"/>
</radialGradient>
<radialGradient id="paint3_radial_1_1525" cx="0" cy="0" r="1" gradientUnits="userSpaceOnUse" gradientTransform="translate(126 504) rotate(28.4555) scale(250.8 222.933)">
<stop stop-opacity="0.08"/>
<stop offset="1" stop-opacity="0"/>
</radialGradient>
<radialGradient id="paint4_radial_1_1525" cx="0" cy="0" r="1" gradientUnits="userSpaceOnUse" gradientTransform="translate(1462.5 143) rotate(122.48) scale(256.051 227.601)">
<stop stop-color="#D9D9D9" stop-opacity="0.05"/>
<stop offset="1" stop-color="#D9D9D9" stop-opacity="0"/>
</radialGradient>
<radialGradient id="paint5_radial_1_1525" cx="0" cy="0" r="1" gradientUnits="userSpaceOnUse" gradientTransform="translate(1230.5 731.5) rotate(-122.058) scale(287.312 122.923)">
<stop stop-opacity="0.08"/>
<stop offset="1" stop-opacity="0"/>
</radialGradient>
</defs>
</svg>
