<svg width="390" height="938" viewBox="0 0 390 938" fill="none" xmlns="http://www.w3.org/2000/svg">
<g filter="url(#filter0_f_89_5092)">
<path fill-rule="evenodd" clip-rule="evenodd" d="M14.3614 1082.04C111.661 1045.75 223.529 978.365 226.241 867.005C228.902 757.746 77.7789 714.668 25.7209 615.648C-25.1361 518.912 28.7418 365.123 -64.2265 314.502C-155.475 264.817 -251.555 358.374 -323.045 425.745C-376.931 476.524 -388.564 555.392 -401.472 632.313C-412.604 698.644 -412.889 763.842 -390.856 829.814C-362.999 913.226 -335.107 1003.85 -262.243 1049.21C-176.934 1102.31 -73.71 1114.89 14.3614 1082.04Z" fill="url(#paint0_linear_89_5092)"/>
</g>
<defs>
<filter id="filter0_f_89_5092" x="-708.908" y="0.519775" width="1235.18" height="1399.57" filterUnits="userSpaceOnUse" color-interpolation-filters="sRGB">
<feFlood flood-opacity="0" result="BackgroundImageFix"/>
<feBlend mode="normal" in="SourceGraphic" in2="BackgroundImageFix" result="shape"/>
<feGaussianBlur stdDeviation="150" result="effect1_foregroundBlur_89_5092"/>
</filter>
<linearGradient id="paint0_linear_89_5092" x1="-98.7201" y1="959.878" x2="64.7563" y2="385.274" gradientUnits="userSpaceOnUse">
<stop offset="0.206022" stop-color="#D2DDF7"/>
<stop offset="1" stop-color="#D6C9F2"/>
</linearGradient>
</defs>
</svg>
