<svg xmlns="http://www.w3.org/2000/svg" width="801" height="900" fill="none" viewBox="0 0 801 900"><g filter="url(#a)"><path fill="url(#b)" fill-rule="evenodd" d="M-261.683 547.264c80.118-175.231 217.741-374.807 415.715-371.548 194.239 3.198 246.204 282.703 413.43 385.198C730.829 661.045 1012.34 573.88 1087.1 747.607c73.37 170.513-108.131 339.293-239.202 465.033-98.794 94.78-240.574 110.23-379.109 128.16-119.461 15.46-235.159 11.17-348.618-33.99-143.455-57.09-299.7-114.78-368.363-251.36-80.39-159.901-86.01-349.573-13.491-508.186" clip-rule="evenodd"/></g><path stroke="#fff" d="M.5-130V957m25-1087V957m25-1087V957m25-1087V957m25-1087V957m25-1087V957m25-1087V957m25-1087V957m25.001-1087L200.5 957m25.001-1087V957m25-1087V957m25-1087V957m25-1087V957m25-1087V957m25-1087V957m25-1087V957m25-1087V957m25-1087V957m25-1087V957m25-1087V957m25-1087V957m25-1087V957m25-1087V957m25-1087V957m25.001-1087-.001 1087m25.001-1087V957m25-1087V957m25-1087V957m25-1087V957m25-1087V957m25-1087V957m25-1087V957m25-1087V957" opacity=".04"/><defs><linearGradient id="b" x1="35.495" x2="955.389" y1="751.728" y2="353.76" gradientUnits="userSpaceOnUse"><stop offset=".206" stop-color="#374669"/><stop offset="1" stop-color="#c8aeff"/></linearGradient><filter id="a" width="2016.49" height="1773.22" x="-612.502" y="-124.323" color-interpolation-filters="sRGB" filterUnits="userSpaceOnUse"><feFlood flood-opacity="0" result="BackgroundImageFix"/><feBlend in="SourceGraphic" in2="BackgroundImageFix" result="shape"/><feGaussianBlur result="effect1_foregroundBlur_2001_662" stdDeviation="150"/></filter></defs></svg>